<svg version="1.1" id="Layer_1" xmlns="http://www.w3.org/2000/svg" xmlns:xlink="http://www.w3.org/1999/xlink" x="0px" y="0px"
	 width="100%" viewBox="0 0 225 225" enable-background="new 0 0 225 225" xml:space="preserve">
<path fill="#FFFFFF" opacity="1.000000" stroke="none" 
	d="
M107.000000,226.000000 
	C71.333336,226.000000 36.166672,226.000000 1.000005,226.000000 
	C1.000003,151.000000 1.000003,76.000015 1.000002,1.000015 
	C75.999992,1.000010 150.999985,1.000010 225.999969,1.000005 
	C225.999985,75.999985 225.999985,150.999969 226.000000,225.999969 
	C186.500000,226.000000 147.000000,226.000000 107.000000,226.000000 
M82.825424,158.688583 
	C111.815392,185.546265 153.480576,173.935501 177.415924,150.868240 
	C173.601501,145.944382 169.595490,141.073730 165.942719,135.951218 
	C163.551239,132.597488 161.781570,131.970917 158.137924,134.810059 
	C146.924194,143.547791 134.778793,150.004181 119.763023,149.070084 
	C101.030418,147.904739 88.452118,131.516281 92.038033,114.905914 
	C95.253136,100.013138 103.231422,88.344551 116.607399,80.776718 
	C119.276016,79.266869 122.498901,78.356422 125.556313,78.039909 
	C127.813126,77.806282 130.216431,78.987785 132.554459,79.538780 
	C131.928848,81.855530 131.837311,84.522003 130.587784,86.430191 
	C124.237534,96.127792 115.344559,102.495872 104.174309,105.747803 
	C102.633682,106.196304 100.294189,107.374062 100.126114,108.486427 
	C99.203331,114.593544 98.515060,120.780472 98.421112,126.950272 
	C98.371933,130.179016 100.646431,131.720337 104.270073,131.059204 
	C128.063187,126.718124 145.533951,113.924202 155.602646,91.889702 
	C159.613449,83.112373 158.872467,73.969498 153.353165,65.677673 
	C145.164474,53.375519 132.649994,50.920105 119.755051,53.656986 
	C93.486938,59.232246 77.847679,77.192123 70.030579,101.903152 
	C63.474045,122.629318 66.034767,142.086334 82.825424,158.688583 
M33.537426,93.910568 
	C32.017685,94.581345 30.497946,95.252121 28.978205,95.922890 
	C29.303669,96.832840 29.629133,97.742790 29.954597,98.652733 
	C39.865833,106.523911 49.777073,114.395088 59.850826,122.395340 
	C61.823292,112.470200 63.521561,103.924774 65.240250,95.276588 
	C59.302879,89.962044 53.099815,84.409676 46.465347,78.471161 
	C42.235405,83.514572 38.102718,88.442017 33.537426,93.910568 
M174.749908,137.763245 
	C177.293686,140.927109 179.837463,144.090973 182.492096,147.392731 
	C187.548111,143.152740 192.068054,139.362320 196.741959,135.442764 
	C191.387756,128.776871 186.351532,122.506844 181.109116,115.980125 
	C176.157135,120.158806 171.644577,123.966675 166.927383,127.947220 
	C169.572922,131.276245 171.932053,134.244858 174.749908,137.763245 
z"/>
<path fill="#742B95" opacity="1.000000" stroke="none" 
	d="
M82.580048,158.430008 
	C66.034767,142.086334 63.474045,122.629318 70.030579,101.903152 
	C77.847679,77.192123 93.486938,59.232246 119.755051,53.656986 
	C132.649994,50.920105 145.164474,53.375519 153.353165,65.677673 
	C158.872467,73.969498 159.613449,83.112373 155.602646,91.889702 
	C145.533951,113.924202 128.063187,126.718124 104.270073,131.059204 
	C100.646431,131.720337 98.371933,130.179016 98.421112,126.950272 
	C98.515060,120.780472 99.203331,114.593544 100.126114,108.486427 
	C100.294189,107.374062 102.633682,106.196304 104.174309,105.747803 
	C115.344559,102.495872 124.237534,96.127792 130.587784,86.430191 
	C131.837311,84.522003 131.928848,81.855530 132.554459,79.538780 
	C130.216431,78.987785 127.813126,77.806282 125.556313,78.039909 
	C122.498901,78.356422 119.276016,79.266869 116.607399,80.776718 
	C103.231422,88.344551 95.253136,100.013138 92.038033,114.905914 
	C88.452118,131.516281 101.030418,147.904739 119.763023,149.070084 
	C134.778793,150.004181 146.924194,143.547791 158.137924,134.810059 
	C161.781570,131.970917 163.551239,132.597488 165.942719,135.951218 
	C169.595490,141.073730 173.601501,145.944382 177.415924,150.868240 
	C153.480576,173.935501 111.815392,185.546265 82.580048,158.430008 
z"/>
<path fill="#742C95" opacity="1.000000" stroke="none" 
	d="
M33.753731,93.640015 
	C38.102718,88.442017 42.235405,83.514572 46.465347,78.471161 
	C53.099815,84.409676 59.302879,89.962044 65.240250,95.276588 
	C63.521561,103.924774 61.823292,112.470200 59.850826,122.395340 
	C49.777073,114.395088 39.865833,106.523911 29.954597,98.652733 
	C29.629133,97.742790 29.303669,96.832840 28.978205,95.922890 
	C30.497946,95.252121 32.017685,94.581345 33.753731,93.640015 
z"/>
<path fill="#06BFDD" opacity="1.000000" stroke="none" 
	d="
M174.520538,137.488358 
	C171.932053,134.244858 169.572922,131.276245 166.927383,127.947220 
	C171.644577,123.966675 176.157135,120.158806 181.109116,115.980125 
	C186.351532,122.506844 191.387756,128.776871 196.741959,135.442764 
	C192.068054,139.362320 187.548111,143.152740 182.492096,147.392731 
	C179.837463,144.090973 177.293686,140.927109 174.520538,137.488358 
z"/>
</svg>